<?xml version="1.0" encoding="utf-8"?>
<!-- Generator: Adobe Illustrator 24.0.1, SVG Export Plug-In . SVG Version: 6.00 Build 0)  -->
<svg version="1.1" id="Слой_1" xmlns="http://www.w3.org/2000/svg" xmlns:xlink="http://www.w3.org/1999/xlink" x="0px" y="0px"
	 viewBox="0 0 1646.7 616.3" style="enable-background:new 0 0 1646.7 616.3;" xml:space="preserve">
<style type="text/css">
	.st0{fill:#3751B9;}
	.st1{fill:#316DE4;}
</style>
<g>
	<path class="st0" d="M570,232.4h119.3v17.7h-49.5v127.8h-20.3V250.1H570V232.4z"/>
	<path class="st0" d="M813.7,250.1h-80.5v44.6h74.4v17.7h-74.4v47.7h82.7v17.7h-103V232.4h100.8V250.1z"/>
	<path class="st0" d="M981.3,377.8h-21.1l-18.4-42.8h-69.6l-18.3,42.8h-21l64.5-145.4h19.9L981.3,377.8z M879.6,318h54.6L907,254.4
		L879.6,318z"/>
	<path class="st0" d="M1083.6,324.7l61.2-92.3h17.4v145.4h-19.6V267.8l-53.6,81h-12l-53.6-83.1v112.2h-18.8V232.4h19L1083.6,324.7z"
		/>
	<path class="st0" d="M1190.5,305.1c0-43.8,34.2-75.7,81.6-75.7c47.5,0,81.6,31.9,81.6,75.7c0,43.9-34.3,75.8-81.6,75.8
		C1224.7,380.9,1190.5,348.8,1190.5,305.1z M1314.7,305.1c0-25.2-17-42.8-42.6-42.8c-25.5,0-42.4,17.6-42.4,42.8
		c0,25,17.1,42.8,42.4,42.8C1297.4,347.9,1314.7,330.1,1314.7,305.1z"/>
	<path class="st0" d="M1503.3,280.6c0,30.8-22.1,48.6-62,48.6h-25.1v48.5h-38.5V232.4h63.5C1481,232.4,1503.3,250.6,1503.3,280.6z
		 M1464.6,280.6c0-10.4-7-16.4-25-16.4h-23.4v33.2h23.4C1457.6,297.4,1464.6,291.4,1464.6,280.6z"/>
	<path class="st0" d="M1516.6,344.8l31.3-16.9c7.3,13.7,20.6,21.1,38.4,21.1c15,0,22.7-5.6,22.7-13.5c0-9.1-13.4-12.2-29.6-15.9
		c-25.4-5.8-57.8-13.2-57.8-47.4c0-25.8,23.6-42.8,58.9-42.8c29,0,53.3,12.7,65.2,33.9l-31.3,16.7c-7.1-12.2-20.4-18.7-36.9-18.7
		c-11.8,0-18.2,4.6-18.2,10.7c0,7.8,12.5,10.7,28.1,14.2c25.6,5.8,59.4,13.4,59.4,48c0,27.4-25.3,46.7-62.3,46.7
		C1554.2,380.9,1528.6,367.2,1516.6,344.8z"/>
</g>
<g>
	<path class="st1" d="M1225.1,401.9h-10.9v-5.9h28.3v5.9h-10.9v29.7h-6.4V401.9z"/>
	<path class="st1" d="M1247,396.1h6.2v13.4c1.5-1.9,4.4-3.6,8.3-3.6c6.1,0,9.7,3.7,9.7,10.2v15.6h-6.2v-14.7c0-3.2-1.8-5.4-5.2-5.4
		c-3.8,0-6.6,2.7-6.6,6.8v13.3h-6.2V396.1z"/>
	<path class="st1" d="M1276.9,419.1c0-7.5,5.5-13.2,13.2-13.2c7.4,0,12.6,5.6,12.6,13.2v1.6H1283c0.6,3.7,3.4,6.3,7.2,6.3
		c3.1,0,5.3-1.4,6.6-3.2l4.8,2.5c-1.9,3.4-6.1,6-11.5,6C1282.4,432.2,1276.9,426.6,1276.9,419.1z M1296.4,416.7
		c-0.7-3.3-3.1-5.6-6.3-5.6c-3.5,0-6.1,2.2-6.9,5.6H1296.4z"/>
	<path class="st1" d="M1323,411.8h-4.4v-5.3h4.4v-1.7c0-5.2,3.9-9.4,10-9.4c2.7,0,5.1,0.7,6.6,1.9l-2.5,4.5c-0.8-0.6-2.1-1-3.7-1
		c-2.5,0-4.2,1.6-4.2,4v1.7h7.3v5.3h-7.3v19.8h-6.3V411.8z"/>
	<path class="st1" d="M1340.6,422v-15.6h6.2v14.7c0,3.2,1.8,5.4,5.2,5.4c3.9,0,6.6-2.7,6.6-6.8v-13.3h6.2v25.1h-6.2v-3.3
		c-1.5,2.2-4.4,3.9-8.3,3.9C1344.2,432.2,1340.6,428.5,1340.6,422z"/>
	<path class="st1" d="M1374.7,424.3v-12.5h-4.7v-5.3h4.7V400h6.2v6.4h6.7v5.3h-6.7v11.7c0,2,1.2,3.1,2.9,3.1c1.2,0,2.4-0.4,3-0.9
		l1.9,4.9c-1.1,0.8-3.2,1.6-5.8,1.6C1377.8,432.2,1374.7,428.9,1374.7,424.3z"/>
	<path class="st1" d="M1393.8,422v-15.6h6.2v14.7c0,3.2,1.7,5.4,5.2,5.4c3.9,0,6.6-2.7,6.6-6.8v-13.3h6.2v25.1h-6.2v-3.3
		c-1.5,2.2-4.4,3.9-8.3,3.9C1397.4,432.2,1393.8,428.5,1393.8,422z"/>
	<path class="st1" d="M1425.9,406.5h6.2v3.1c1.9-2.1,4.9-3.6,8.7-3.6v6.4c-0.4-0.2-1.2-0.4-2.3-0.4c-3.6,0-6.5,2.5-6.5,6.9v12.7
		h-6.2V406.5z"/>
	<path class="st1" d="M1443.7,419.1c0-7.5,5.5-13.2,13.2-13.2c7.4,0,12.6,5.6,12.6,13.2v1.6h-19.7c0.6,3.7,3.4,6.3,7.2,6.3
		c3.1,0,5.3-1.4,6.6-3.2l4.8,2.5c-1.9,3.4-6.1,6-11.5,6C1449.2,432.2,1443.7,426.6,1443.7,419.1z M1463.2,416.7
		c-0.7-3.3-3.1-5.6-6.3-5.6c-3.5,0-6.1,2.2-6.9,5.6H1463.2z"/>
	<path class="st1" d="M1488.1,396.5h6.5v5.6h-6.5V396.5z M1488.2,406.5h6.2v25.1h-6.2V406.5z"/>
	<path class="st1" d="M1499.9,426.5l4.9-2.6c1,1.8,3.3,3.1,6.7,3.1c3.2,0,4.7-1,4.7-2.6c0-1.7-2.4-2.3-5.4-3
		c-4.5-1.1-10.1-2.5-10.1-8.3c0-4.4,4.2-7.3,10.3-7.3c5.3,0,9.3,2.1,10.9,5.4l-4.8,2.5c-0.9-1.6-3-2.8-6.2-2.8
		c-2.6,0-4.2,0.9-4.2,2.2c0,1.7,2.5,2.4,5.5,3.1c4.4,1.1,9.9,2.6,9.9,8c0,4.7-4.3,7.9-10.8,7.9
		C1505.9,432.2,1501.8,430.1,1499.9,426.5z"/>
	<path class="st1" d="M1541.4,406.5h6.2v3.3c1.5-2.2,4.4-3.9,8.3-3.9c6.1,0,9.7,3.7,9.7,10.2v15.6h-6.2v-14.7c0-3.2-1.8-5.4-5.2-5.4
		c-3.8,0-6.6,2.7-6.6,6.8v13.3h-6.2V406.5z"/>
	<path class="st1" d="M1571.2,419.1c0-7.5,5.5-13.2,13.2-13.2c7.4,0,12.6,5.6,12.6,13.2v1.6h-19.7c0.6,3.7,3.4,6.3,7.2,6.3
		c3.1,0,5.3-1.4,6.6-3.2l4.8,2.5c-1.9,3.4-6.1,6-11.5,6C1576.7,432.2,1571.2,426.6,1571.2,419.1z M1590.7,416.7
		c-0.7-3.3-3.1-5.6-6.3-5.6c-3.5,0-6.1,2.2-6.9,5.6H1590.7z"/>
	<path class="st1" d="M1601.3,424.4c0-5,3.8-8.3,10.1-8.3c3,0,5.5,0.6,6.6,1.1V416c0-2.9-1.8-4.8-5.2-4.8c-3.6,0-5.4,2.2-5.9,2.9
		l-5-2.6c0.8-1.2,3.6-5.6,11.1-5.6c7.1,0,11.2,4,11.2,10.3v15.5h-6.2v-3.5c-1.2,2-4.2,4.1-8.1,4.1
		C1604.7,432.2,1601.3,429.1,1601.3,424.4z M1618,421.9V421c-0.8-0.4-2.7-1-5.2-1c-3.3,0-5.2,1.6-5.2,4c0,2.1,1.5,3.3,3.8,3.3
		C1615.2,427.3,1618,424.2,1618,421.9z"/>
	<path class="st1" d="M1631.4,406.5h6.2v3.1c1.9-2.1,4.9-3.6,8.7-3.6v6.4c-0.4-0.2-1.2-0.4-2.3-0.4c-3.6,0-6.5,2.5-6.5,6.9v12.7
		h-6.2V406.5z"/>
</g>
<path class="st0" d="M265.4,616.3c-70.9,0-137.5-27.6-187.6-77.7C27.6,488.4,0,421.8,0,350.9c0-70.9,27.6-137.5,77.7-187.6
	s116.8-77.7,187.6-77.7s137.5,27.6,187.6,77.7s77.7,116.8,77.7,187.6c0,70.9-27.6,137.5-77.7,187.6
	C402.9,588.7,336.2,616.3,265.4,616.3z M265.4,135.6C146.6,135.6,50,232.2,50,350.9c0,118.7,96.6,215.4,215.4,215.4
	s215.4-96.6,215.4-215.4C480.7,232.2,384.1,135.6,265.4,135.6z"/>
<path class="st0" d="M197.2,359.9c-45.6,0-82.7-37.1-82.7-82.7c0-45.6,37.1-82.7,82.7-82.7c45.6,0,82.7,37.1,82.7,82.7
	C279.9,322.8,242.8,359.9,197.2,359.9z M197.2,244.5c-18,0-32.7,14.7-32.7,32.7c0,18,14.7,32.7,32.7,32.7c18,0,32.7-14.7,32.7-32.7
	C229.9,259.2,215.2,244.5,197.2,244.5z"/>
<path class="st1" d="M551.9,167.6c-45.6,0-82.7-37.1-82.7-82.7s37.1-82.7,82.7-82.7c45.6,0,82.7,37.1,82.7,82.7
	S597.5,167.6,551.9,167.6z M551.9,52.2c-18,0-32.7,14.7-32.7,32.7s14.7,32.7,32.7,32.7c18,0,32.7-14.7,32.7-32.7
	S569.9,52.2,551.9,52.2z"/>
<path class="st0" d="M333.5,507.4c-45.6,0-82.7-37.1-82.7-82.7s37.1-82.7,82.7-82.7s82.7,37.1,82.7,82.7S379.1,507.4,333.5,507.4z
	 M333.5,392c-18,0-32.7,14.7-32.7,32.7s14.7,32.7,32.7,32.7s32.7-14.7,32.7-32.7S351.6,392,333.5,392z"/>
<rect x="254.9" y="252.2" class="st0" width="239.3" height="50"/>
<rect x="36.5" y="399.7" class="st0" width="239.3" height="50"/>
</svg>
