<svg width="22" height="22" viewBox="0 0 22 22" fill="none" xmlns="http://www.w3.org/2000/svg">
<path d="M10.9997 20.1668C16.0623 20.1668 20.1663 16.0627 20.1663 11.0001C20.1663 5.93749 16.0623 1.83344 10.9997 1.83344C5.93706 1.83344 1.83301 5.93749 1.83301 11.0001C1.83301 16.0627 5.93706 20.1668 10.9997 20.1668Z" stroke="#A3A3A3" stroke-width="1.5" stroke-linecap="round" stroke-linejoin="round"/>
<path d="M10.9997 14.6668C13.0247 14.6668 14.6663 13.0251 14.6663 11.0001C14.6663 8.97506 13.0247 7.33344 10.9997 7.33344C8.97463 7.33344 7.33301 8.97506 7.33301 11.0001C7.33301 13.0251 8.97463 14.6668 10.9997 14.6668Z" stroke="#A3A3A3" stroke-width="1.5" stroke-linecap="round" stroke-linejoin="round"/>
<path d="M4.51855 4.51929L8.40522 8.40595" stroke="#A3A3A3" stroke-width="1.5" stroke-linecap="round" stroke-linejoin="round"/>
<path d="M13.5938 13.5942L17.4804 17.4809" stroke="#A3A3A3" stroke-width="1.5" stroke-linecap="round" stroke-linejoin="round"/>
<path d="M13.5938 8.40595L17.4804 4.51929" stroke="#A3A3A3" stroke-width="1.5" stroke-linecap="round" stroke-linejoin="round"/>
<path d="M13.5938 8.40594L16.8296 5.1701" stroke="#A3A3A3" stroke-width="1.5" stroke-linecap="round" stroke-linejoin="round"/>
<path d="M4.51855 17.4809L8.40522 13.5942" stroke="#A3A3A3" stroke-width="1.5" stroke-linecap="round" stroke-linejoin="round"/>
</svg>
