<svg width="22" height="22" viewBox="0 0 22 22" fill="none" xmlns="http://www.w3.org/2000/svg">
<path d="M11 13.75C12.5188 13.75 13.75 12.5188 13.75 11C13.75 9.48122 12.5188 8.25 11 8.25C9.48122 8.25 8.25 9.48122 8.25 11C8.25 12.5188 9.48122 13.75 11 13.75Z" stroke="#A3A3A3" stroke-width="1.5" stroke-linecap="round" stroke-linejoin="round"/>
<path d="M17.7837 13.75C17.6616 14.0265 17.6252 14.3332 17.6792 14.6306C17.7331 14.9279 17.8748 15.2023 18.0862 15.4184L18.1412 15.4734C18.3116 15.6436 18.4468 15.8458 18.5391 16.0684C18.6314 16.2909 18.6789 16.5295 18.6789 16.7704C18.6789 17.0114 18.6314 17.2499 18.5391 17.4725C18.4468 17.6951 18.3116 17.8973 18.1412 18.0675C17.9709 18.238 17.7687 18.3732 17.5461 18.4655C17.3236 18.5577 17.085 18.6052 16.8441 18.6052C16.6031 18.6052 16.3646 18.5577 16.142 18.4655C15.9195 18.3732 15.7173 18.238 15.547 18.0675L15.492 18.0125C15.276 17.8012 15.0016 17.6594 14.7042 17.6055C14.4068 17.5516 14.1001 17.588 13.8237 17.71C13.5525 17.8262 13.3213 18.0192 13.1584 18.2651C12.9956 18.511 12.9082 18.7992 12.907 19.0942V19.25C12.907 19.7362 12.7138 20.2026 12.37 20.5464C12.0262 20.8902 11.5599 21.0834 11.0737 21.0834C10.5874 21.0834 10.1211 20.8902 9.7773 20.5464C9.43348 20.2026 9.24033 19.7362 9.24033 19.25V19.1675C9.23323 18.8641 9.13502 18.5698 8.95846 18.323C8.7819 18.0761 8.53517 17.8881 8.25033 17.7834C7.97384 17.6613 7.66715 17.6249 7.36979 17.6788C7.07242 17.7328 6.79803 17.8745 6.58199 18.0859L6.52699 18.1409C6.35672 18.3113 6.15453 18.4465 5.93197 18.5388C5.7094 18.6311 5.47084 18.6785 5.22991 18.6785C4.98898 18.6785 4.75041 18.6311 4.52785 18.5388C4.30529 18.4465 4.10309 18.3113 3.93283 18.1409C3.76237 17.9706 3.62714 17.7684 3.53488 17.5458C3.44262 17.3233 3.39513 17.0847 3.39513 16.8438C3.39513 16.6028 3.44262 16.3643 3.53488 16.1417C3.62714 15.9191 3.76237 15.717 3.93283 15.5467L3.98783 15.4917C4.19915 15.2756 4.34091 15.0013 4.39483 14.7039C4.44875 14.4065 4.41235 14.0998 4.29033 13.8234C4.17413 13.5522 3.98118 13.321 3.73525 13.1581C3.48932 12.9953 3.20113 12.9079 2.90616 12.9067H2.75033C2.2641 12.9067 1.79778 12.7135 1.45396 12.3697C1.11015 12.0259 0.916992 11.5596 0.916992 11.0734C0.916992 10.5871 1.11015 10.1208 1.45396 9.77699C1.79778 9.43317 2.2641 9.24002 2.75033 9.24002H2.83283C3.13624 9.23292 3.4305 9.13471 3.67735 8.95815C3.9242 8.7816 4.11223 8.53486 4.21699 8.25002C4.33901 7.97354 4.37541 7.66684 4.3215 7.36948C4.26758 7.07212 4.12582 6.79773 3.91449 6.58169L3.85949 6.52669C3.68904 6.35642 3.55381 6.15422 3.46155 5.93166C3.36929 5.7091 3.3218 5.47053 3.3218 5.2296C3.3218 4.98868 3.36929 4.75011 3.46155 4.52755C3.55381 4.30498 3.68904 4.10279 3.85949 3.93252C4.02976 3.76206 4.23196 3.62684 4.45452 3.53458C4.67708 3.44232 4.91565 3.39483 5.15658 3.39483C5.3975 3.39483 5.63607 3.44232 5.85863 3.53458C6.0812 3.62684 6.28339 3.76206 6.45366 3.93252L6.50866 3.98752C6.7247 4.19885 6.99909 4.34061 7.29645 4.39452C7.59381 4.44844 7.90051 4.41204 8.17699 4.29002H8.25033C8.52145 4.17382 8.75267 3.98088 8.91554 3.73495C9.07841 3.48901 9.16582 3.20082 9.16699 2.90585V2.75002C9.16699 2.26379 9.36015 1.79747 9.70396 1.45366C10.0478 1.10984 10.5141 0.916687 11.0003 0.916687C11.4866 0.916687 11.9529 1.10984 12.2967 1.45366C12.6405 1.79747 12.8337 2.26379 12.8337 2.75002V2.83252C12.8348 3.12749 12.9222 3.41568 13.0851 3.66161C13.248 3.90755 13.4792 4.10049 13.7503 4.21669C14.0268 4.33871 14.3335 4.37511 14.6309 4.32119C14.9282 4.26727 15.2026 4.12551 15.4187 3.91419L15.4737 3.85919C15.6439 3.68873 15.8461 3.55351 16.0687 3.46124C16.2912 3.36898 16.5298 3.32149 16.7707 3.32149C17.0117 3.32149 17.2502 3.36898 17.4728 3.46124C17.6954 3.55351 17.8976 3.68873 18.0678 3.85919C18.2383 4.02945 18.3735 4.23165 18.4658 4.45421C18.558 4.67678 18.6055 4.91534 18.6055 5.15627C18.6055 5.3972 18.558 5.63576 18.4658 5.85833C18.3735 6.08089 18.2383 6.28309 18.0678 6.45335L18.0128 6.50835C17.8015 6.72439 17.6597 6.99878 17.6058 7.29615C17.5519 7.59351 17.5883 7.90021 17.7103 8.17669V8.25002C17.8265 8.52114 18.0195 8.75237 18.2654 8.91524C18.5113 9.07811 18.7995 9.16551 19.0945 9.16669H19.2503C19.7366 9.16669 20.2029 9.35984 20.5467 9.70366C20.8905 10.0475 21.0837 10.5138 21.0837 11C21.0837 11.4863 20.8905 11.9526 20.5467 12.2964C20.2029 12.6402 19.7366 12.8334 19.2503 12.8334H19.1678C18.8729 12.8345 18.5847 12.9219 18.3387 13.0848C18.0928 13.2477 17.8999 13.4789 17.7837 13.75V13.75Z" stroke="#A3A3A3" stroke-width="1.5" stroke-linecap="round" stroke-linejoin="round"/>
</svg>
