<svg width="24" height="24" viewBox="0 0 24 24" fill="none" xmlns="http://www.w3.org/2000/svg">
<path d="M19.5 6.75006H4.5C3.25736 6.75006 2.25 7.75742 2.25 9.00006V18.0001C2.25 19.2427 3.25736 20.2501 4.5 20.2501H19.5C20.7426 20.2501 21.75 19.2427 21.75 18.0001V9.00006C21.75 7.75742 20.7426 6.75006 19.5 6.75006Z" stroke="#A3A3A3" stroke-width="1.5" stroke-linejoin="round"/>
<path d="M19.2825 6.75004V5.34379C19.2824 4.99889 19.2062 4.65826 19.0592 4.34621C18.9123 4.03416 18.6984 3.75838 18.4326 3.53855C18.1668 3.31872 17.8558 3.16025 17.5217 3.07446C17.1877 2.98867 16.8388 2.97766 16.5 3.04223L4.155 5.14926C3.6189 5.25142 3.13526 5.53747 2.78749 5.95806C2.43972 6.37865 2.24963 6.90742 2.25 7.45316V9.75004" stroke="#A3A3A3" stroke-width="1.5" stroke-linejoin="round"/>
<path d="M17.25 14.2501C17.1017 14.2501 16.9567 14.2061 16.8333 14.1237C16.71 14.0413 16.6139 13.9241 16.5571 13.7871C16.5003 13.65 16.4855 13.4992 16.5144 13.3537C16.5434 13.2083 16.6148 13.0746 16.7197 12.9697C16.8246 12.8648 16.9582 12.7934 17.1037 12.7645C17.2492 12.7355 17.4 12.7504 17.537 12.8072C17.6741 12.8639 17.7912 12.96 17.8736 13.0834C17.956 13.2067 18 13.3517 18 13.5001C18 13.699 17.921 13.8898 17.7803 14.0304C17.6397 14.1711 17.4489 14.2501 17.25 14.2501Z" fill="#A3A3A3" stroke="#A3A3A3" stroke-width="1.5"/>
</svg>
