<svg width="50" height="50" viewBox="0 0 50 50" fill="none" color="red" xmlns="http://www.w3.org/2000/svg">
                                        <path d="M40.625 1.95312H39.8562H33.7201C33.4548 0.834766 32.4483 0 31.25 0H18.75C17.5517 0 16.5452 0.834766 16.28 1.95312H10.1687H9.375C7.11338 1.95312 5.27344 3.79307 5.27344 6.05469V45.8984C5.27344 48.1601 7.11338 50 9.375 50H40.625C42.8866 50 44.7266 48.1601 44.7266 45.8984V24.4141C44.7266 23.8747 44.2893 23.4375 43.75 23.4375C43.2107 23.4375 42.7734 23.8747 42.7734 24.4141V45.8984C42.7734 47.0831 41.8097 48.0469 40.625 48.0469H9.375C8.19033 48.0469 7.22656 47.0831 7.22656 45.8984V6.05469C7.22656 4.93174 8.09277 4.00781 9.19209 3.91455V45.1172C9.19209 45.6565 9.62939 46.0938 10.1687 46.0938H39.8562C40.3954 46.0938 40.8327 45.6565 40.8327 45.1172V3.9165C41.9202 4.02129 42.7734 4.94014 42.7734 6.05469V16.6016C42.7734 17.1409 43.2107 17.5781 43.75 17.5781C44.2893 17.5781 44.7266 17.1409 44.7266 16.6016V6.05469C44.7266 3.79307 42.8866 1.95312 40.625 1.95312ZM18.1641 2.53906C18.1641 2.21592 18.4269 1.95312 18.75 1.95312H31.25C31.5731 1.95312 31.8359 2.21592 31.8359 2.53906V7.22656C31.8359 7.54971 31.5731 7.8125 31.25 7.8125H18.75C18.4269 7.8125 18.1641 7.54971 18.1641 7.22656V2.53906ZM38.8796 44.1406H11.1452V3.90625H16.2109V7.22656C16.2109 8.62656 17.3499 9.76562 18.75 9.76562H31.25C32.6501 9.76562 33.7891 8.62656 33.7891 7.22656V3.90625H38.8796V44.1406Z" fill="url(#paint0_linear)"></path>
                                        <path d="M43.75 19.5312C43.4932 19.5312 43.2412 19.6357 43.0596 19.8174C42.8779 19.999 42.7734 20.251 42.7734 20.5078C42.7734 20.7646 42.8778 21.0166 43.0596 21.1982C43.2413 21.3799 43.4932 21.4844 43.75 21.4844C44.0068 21.4844 44.2588 21.3799 44.4403 21.1982C44.622 21.0166 44.7266 20.7646 44.7266 20.5078C44.7266 20.251 44.6221 19.999 44.4403 19.8174C44.2588 19.6357 44.0068 19.5312 43.75 19.5312Z" fill="url(#paint1_linear)"></path>
                                        <path d="M17.9814 19.5312H15.0518V16.6016C15.0518 16.0622 14.6145 15.625 14.0752 15.625C13.5359 15.625 13.0986 16.0622 13.0986 16.6016V20.5078C13.0986 21.0472 13.5359 21.4844 14.0752 21.4844H17.9814C18.5207 21.4844 18.958 21.0472 18.958 20.5078C18.958 19.9685 18.5207 19.5312 17.9814 19.5312Z" fill="url(#paint2_linear)"></path>
                                        <path d="M23.3398 19.5312C22.8006 19.5312 22.3633 19.9685 22.3633 20.5078C22.3633 21.0472 22.8006 21.4844 23.3398 21.4844H35.9499C36.4892 21.4844 36.9265 21.0472 36.9265 20.5078C36.9265 19.9685 36.4892 19.5312 35.9499 19.5312H23.3398Z" fill="url(#paint3_linear)"></path>
                                        <path d="M23.3398 17.5781H29.1992C29.7385 17.5781 30.1758 17.1409 30.1758 16.6016C30.1758 16.0622 29.7385 15.625 29.1992 15.625H23.3398C22.8006 15.625 22.3633 16.0622 22.3633 16.6016C22.3633 17.1409 22.8006 17.5781 23.3398 17.5781Z" fill="url(#paint4_linear)"></path>
                                        <path d="M17.9814 28.9062H15.0518V25.9766C15.0518 25.4372 14.6145 25 14.0752 25C13.5359 25 13.0986 25.4372 13.0986 25.9766V29.8828C13.0986 30.4222 13.5359 30.8594 14.0752 30.8594H17.9814C18.5207 30.8594 18.958 30.4222 18.958 29.8828C18.958 29.3435 18.5207 28.9062 17.9814 28.9062Z" fill="url(#paint5_linear)"></path>
                                        <path d="M35.9499 28.9062H23.3398C22.8006 28.9062 22.3633 29.3435 22.3633 29.8828C22.3633 30.4222 22.8006 30.8594 23.3398 30.8594H35.9499C36.4892 30.8594 36.9265 30.4222 36.9265 29.8828C36.9265 29.3435 36.4892 28.9062 35.9499 28.9062Z" fill="url(#paint6_linear)"></path>
                                        <path d="M23.3398 26.9531H29.1992C29.7385 26.9531 30.1758 26.5159 30.1758 25.9766C30.1758 25.4372 29.7385 25 29.1992 25H23.3398C22.8006 25 22.3633 25.4372 22.3633 25.9766C22.3633 26.5159 22.8006 26.9531 23.3398 26.9531Z" fill="url(#paint7_linear)"></path>
                                        <path d="M17.9814 38.2812H15.0518V35.3516C15.0518 34.8122 14.6145 34.375 14.0752 34.375C13.5359 34.375 13.0986 34.8122 13.0986 35.3516V39.2578C13.0986 39.7972 13.5359 40.2344 14.0752 40.2344H17.9814C18.5207 40.2344 18.958 39.7972 18.958 39.2578C18.958 38.7185 18.5207 38.2812 17.9814 38.2812Z" fill="url(#paint8_linear)"></path>
                                        <path d="M23.3398 38.2812C23.083 38.2812 22.8311 38.3857 22.6494 38.5674C22.4678 38.749 22.3633 39.001 22.3633 39.2578C22.3633 39.5146 22.4677 39.7666 22.6494 39.9482C22.8312 40.1299 23.083 40.2344 23.3398 40.2344C23.5967 40.2344 23.8486 40.1299 24.0302 39.9482C24.2118 39.7666 24.3164 39.5146 24.3164 39.2578C24.3164 39.001 24.2119 38.749 24.0302 38.5674C23.8486 38.3857 23.5967 38.2812 23.3398 38.2812Z" fill="url(#paint9_linear)"></path>
                                        <path d="M35.9499 38.2812H27.2461C26.7068 38.2812 26.2695 38.7185 26.2695 39.2578C26.2695 39.7972 26.7068 40.2344 27.2461 40.2344H35.9499C36.4892 40.2344 36.9265 39.7972 36.9265 39.2578C36.9265 38.7185 36.4892 38.2812 35.9499 38.2812Z" fill="url(#paint10_linear)"></path>
                                        <path d="M29.1992 36.3281C29.7385 36.3281 30.1758 35.8909 30.1758 35.3516C30.1758 34.8122 29.7385 34.375 29.1992 34.375H23.3398C22.8006 34.375 22.3633 34.8122 22.3633 35.3516C22.3633 35.8909 22.8006 36.3281 23.3398 36.3281H29.1992Z" fill="url(#paint11_linear)"></path>
                                        <defs>
                                            <linearGradient id="paint0_linear" x1="44.1831" y1="-2.23972e-06" x2="-5.20155" y2="17.9303" gradientUnits="userSpaceOnUse">
                                                <stop stop-color="#4EDE9F"></stop>
                                                <stop offset="0.9999" stop-color="#2CCA9A"></stop>
                                            </linearGradient>
                                            <linearGradient id="paint1_linear" x1="44.6997" y1="19.5312" x2="42.4161" y2="20.582" gradientUnits="userSpaceOnUse">
                                                <stop stop-color="#4EDE9F"></stop>
                                                <stop offset="0.9999" stop-color="#2CCA9A"></stop>
                                            </linearGradient>
                                            <linearGradient id="paint2_linear" x1="18.8773" y1="15.625" x2="12.0266" y2="18.7772" gradientUnits="userSpaceOnUse">
                                                <stop stop-color="#4EDE9F"></stop>
                                                <stop offset="0.9999" stop-color="#2CCA9A"></stop>
                                            </linearGradient>
                                            <linearGradient id="paint3_linear" x1="36.7259" y1="19.5312" x2="35.1103" y2="25.074" gradientUnits="userSpaceOnUse">
                                                <stop stop-color="#4EDE9F"></stop>
                                                <stop offset="0.9999" stop-color="#2CCA9A"></stop>
                                            </linearGradient>
                                            <linearGradient id="paint4_linear" x1="30.0682" y1="15.625" x2="27.5455" y2="20.268" gradientUnits="userSpaceOnUse">
                                                <stop stop-color="#4EDE9F"></stop>
                                                <stop offset="0.9999" stop-color="#2CCA9A"></stop>
                                            </linearGradient>
                                            <linearGradient id="paint5_linear" x1="18.8773" y1="25" x2="12.0266" y2="28.1522" gradientUnits="userSpaceOnUse">
                                                <stop stop-color="#4EDE9F"></stop>
                                                <stop offset="0.9999" stop-color="#2CCA9A"></stop>
                                            </linearGradient>
                                            <linearGradient id="paint6_linear" x1="36.7259" y1="28.9062" x2="35.1103" y2="34.449" gradientUnits="userSpaceOnUse">
                                                <stop stop-color="#4EDE9F"></stop>
                                                <stop offset="0.9999" stop-color="#2CCA9A"></stop>
                                            </linearGradient>
                                            <linearGradient id="paint7_linear" x1="30.0682" y1="25" x2="27.5455" y2="29.643" gradientUnits="userSpaceOnUse">
                                                <stop stop-color="#4EDE9F"></stop>
                                                <stop offset="0.9999" stop-color="#2CCA9A"></stop>
                                            </linearGradient>
                                            <linearGradient id="paint8_linear" x1="18.8773" y1="34.375" x2="12.0266" y2="37.5272" gradientUnits="userSpaceOnUse">
                                                <stop stop-color="#4EDE9F"></stop>
                                                <stop offset="0.9999" stop-color="#2CCA9A"></stop>
                                            </linearGradient>
                                            <linearGradient id="paint9_linear" x1="24.2895" y1="38.2812" x2="22.0059" y2="39.332" gradientUnits="userSpaceOnUse">
                                                <stop stop-color="#4EDE9F"></stop>
                                                <stop offset="0.9999" stop-color="#2CCA9A"></stop>
                                            </linearGradient>
                                            <linearGradient id="paint10_linear" x1="36.7797" y1="38.2812" x2="34.7124" y2="43.4715" gradientUnits="userSpaceOnUse">
                                                <stop stop-color="#4EDE9F"></stop>
                                                <stop offset="0.9999" stop-color="#2CCA9A"></stop>
                                            </linearGradient>
                                            <linearGradient id="paint11_linear" x1="30.0682" y1="34.375" x2="27.5455" y2="39.018" gradientUnits="userSpaceOnUse">
                                                <stop stop-color="#4EDE9F"></stop>
                                                <stop offset="0.9999" stop-color="#2CCA9A"></stop>
                                            </linearGradient>
                                        </defs>
                                    </svg>