<svg width="150px" height="30px" version="1.1" viewBox="0 0 1661.52 363.23" style="shape-rendering: geometricprecision; text-rendering: geometricprecision; fill-rule: evenodd; clip-rule: evenodd;" xmlns="http://www.w3.org/2000/svg"><g id="Слой_x0020_1"><metadata id="CorelCorpID_0Corel-Layer"></metadata><polygon fill="white" fill-rule="nonzero" points="1434.84,219.32 1372.61,83.97 1453.21,83.97 1475.14,131.66 "></polygon><path fill="white" fill-rule="nonzero" d="M-0 360.01l199.38 0 8.48 -54.69 -130.23 0 8.48 -53.71 112.28 0 8.87 -54.83 -112.48 0 9.2 -58.05 124.44 0 8.87 -54.69 -193.6 0 -43.72 275.97zm380.56 -59.89c-21.96,0 -39.25,-7.3 -52,-22.09 -12.89,-14.79 -17.35,-33.46 -13.67,-55.94 3.48,-22.48 13.87,-41.09 31.42,-55.94 17.49,-14.59 37.14,-21.89 59.1,-21.89 29.12,0 52.26,14.59 61.47,38.65l65.67 -28.66c-8.09,-22.88 -22.48,-40.82 -43.12,-53.9 -20.77,-12.95 -45.49,-19.52 -73.96,-19.52 -27.54,0 -53.18,5.78 -77.24,17.55 -24.13,11.7 -44.11,28.46 -60.35,49.96 -16.17,21.76 -26.36,46.21 -30.77,73.69 -6.38,40.95 3.81,77.51 25.97,101.96 22.15,24.59 56.67,39.25 97.49,39.25 28.92,0 55.68,-6.57 80.33,-19.66 24.65,-12.88 44.7,-30.77 60.28,-53.64l-56.8 -28.66c-17.16,24.06 -44.5,38.85 -73.82,38.85zm288.33 63.11c27.35,0 52.98,-5.98 77.04,-17.75 24.06,-11.7 44.11,-28.27 60.28,-49.96 16.17,-21.56 26.36,-46.02 30.77,-73.5 6.77,-40.96 -3.62,-77.31 -25.77,-101.96 -22.15,-24.39 -56.8,-39.25 -97.42,-39.25 -27.54,0 -53.18,5.78 -77.04,17.55 -24.06,11.7 -44.11,28.46 -60.28,49.96 -16.37,21.56 -26.56,46.21 -30.96,73.69 -6.38,40.95 3.81,77.31 25.97,101.96 22.15,24.59 56.6,39.25 97.42,39.25zm9.93 -63.11c-21.76,0 -39.11,-7.5 -51.8,-22.29 -12.88,-14.79 -17.55,-33.26 -13.87,-55.75 3.48,-22.48 13.87,-41.09 31.36,-55.94 17.55,-14.59 37.21,-21.89 59.16,-21.89 21.96,0 39.25,7.3 52.2,21.89 12.69,14.86 17.29,33.46 13.61,55.94 -6.51,44.64 -48.52,79.02 -90.65,78.03z"></path><path fill="white" fill-rule="nonzero" d="M895.68 84.04l-43.72 276.03 68.89 0 12.36 -76.52 45.56 0c35.63,0 64.49,-9.07 86.58,-27.35 22.15,-18.21 35.43,-42.27 40.23,-72.18 4.67,-29.84 -1.31,-54.17 -17.68,-72.44 -16.57,-18.28 -42.33,-27.54 -77.57,-27.54l-114.65 0zm45.95 144.69l14.07 -90 38.65 0c14.66,0 25.84,4.27 33.53,12.95 7.69,8.61 10.58,19.46 8.61,32.34 -2.1,12.75 -8.22,23.34 -18.8,31.82 -10.58,8.68 -23.14,12.88 -37.54,12.88l-38.52 0z"></path><path fill="white" fill-rule="nonzero" d="M1350.46 360.07l-39.51 -276.1 -107.28 0 -126.94 276.1 71.13 0 20.18 -43.85 105.18 0 5.98 43.85 71.26 0zm-101.89 -219.63l16.96 121.09 -72.44 0 55.48 -121.09z"></path><polygon fill="#00BFB2" fill-rule="nonzero" points="1415.37,360.07 1580.92,0 1661.52,0 1495.97,360.07 "></polygon></g></svg>