<svg width="12" height="13" viewBox="0 0 12 13" fill="none" xmlns="http://www.w3.org/2000/svg">
<path d="M11.7309 10.3696L9.87773 8.51613C9.5086 8.14849 8.89732 8.15966 8.51534 8.54178L7.58168 9.47523C7.5227 9.44272 7.46164 9.40876 7.39745 9.37274C6.80786 9.04605 6.0009 8.59829 5.15174 7.74851C4.30007 6.89694 3.85189 6.08874 3.5242 5.49877C3.48962 5.43626 3.45649 5.376 3.42378 5.31877L4.0504 4.69308L4.35847 4.38463C4.74104 4.00196 4.75159 3.39085 4.38332 3.02214L2.53011 1.16852C2.16185 0.800323 1.55029 0.811493 1.16772 1.19417L0.645425 1.71946L0.659698 1.73363C0.484564 1.9571 0.338217 2.21484 0.22931 2.49278C0.128918 2.75734 0.0664151 3.0098 0.0378352 3.26278C-0.206869 5.29143 0.720167 7.14547 3.23602 9.66136C6.7137 13.1388 9.51626 12.8761 9.63716 12.8633C9.90048 12.8318 10.1528 12.7689 10.4093 12.6693C10.6848 12.5617 10.9424 12.4155 11.1657 12.2408L11.1771 12.2509L11.7063 11.7328C12.088 11.3502 12.099 10.7388 11.7309 10.3696Z" fill="#434343"/>
</svg>
