<svg width="26" height="26" viewBox="0 0 26 26" fill="none" xmlns="http://www.w3.org/2000/svg">
<g clip-path="url(#clip0)">
<path d="M13.1194 0.751221C6.22697 0.751221 0.619446 6.35875 0.619446 13.2512C0.619446 20.1432 6.22697 25.7512 13.1194 25.7512C20.0114 25.7512 25.6194 20.1432 25.6194 13.2512C25.6194 6.35875 20.0124 0.751221 13.1194 0.751221ZM16.2281 13.6913H14.1944C14.1944 16.9404 14.1944 20.9397 14.1944 20.9397H11.181C11.181 20.9397 11.181 16.9792 11.181 13.6913H9.74848V11.1295H11.181V9.47242C11.181 8.28566 11.7449 6.43125 14.2221 6.43125L16.4552 6.43981V8.92662C16.4552 8.92662 15.0982 8.92662 14.8344 8.92662C14.5705 8.92662 14.1954 9.05854 14.1954 9.62448V11.13H16.4914L16.2281 13.6913Z" fill="white" fill-opacity="0.87"/>
</g>
<defs>
<clipPath id="clip0">
<rect width="25" height="25" fill="white" transform="translate(0.619446 0.751221)"/>
</clipPath>
</defs>
</svg>
