<svg width="25" height="26" viewBox="0 0 25 26" fill="none" xmlns="http://www.w3.org/2000/svg">
<g clip-path="url(#clip0)">
<path d="M10.8253 15.3227C10.7442 15.2688 10.6611 15.2104 10.574 15.1515C10.3208 15.074 10.0519 15.0337 9.77647 15.0302H9.74324C8.47743 15.0302 7.36771 15.796 7.36771 16.6701C7.36771 17.6217 8.31883 18.3654 9.53227 18.3654C11.1329 18.3654 11.9441 17.8125 11.9441 16.7249C11.9441 16.6222 11.932 16.5155 11.9063 16.4082C11.798 15.9863 11.4108 15.723 10.8253 15.3227Z" fill="white" fill-opacity="0.87"/>
<path d="M9.92855 12.0056C9.92956 12.0056 9.92956 12.0056 9.92956 12.0056C10.2322 12.0056 10.4874 11.8863 10.6853 11.6597C10.9955 11.3063 11.1329 10.7262 11.0514 10.1104C10.9079 9.00977 10.1209 8.0934 9.29967 8.06973L9.26694 8.06873C8.97642 8.06873 8.71712 8.18856 8.52025 8.41413C8.21462 8.76306 8.08522 9.31591 8.16528 9.93068C8.30928 11.0303 9.11287 11.9804 9.91697 12.0056H9.92855V12.0056Z" fill="white" fill-opacity="0.87"/>
<path d="M12.4999 0.751221C5.60747 0.751221 -6.10352e-05 6.35875 -6.10352e-05 13.2512C-6.10352e-05 20.1432 5.60747 25.7512 12.4999 25.7512C19.3919 25.7512 24.9999 20.1432 24.9999 13.2512C24.9999 6.35875 19.3929 0.751221 12.4999 0.751221ZM11.0589 19.3381C10.5866 19.4745 10.0756 19.5435 9.53933 19.5435C8.94218 19.5435 8.36818 19.475 7.83296 19.3396C6.79725 19.0783 6.03192 18.5828 5.67443 17.9444C5.52036 17.6685 5.44232 17.3744 5.44232 17.0698C5.44232 16.7561 5.51734 16.4379 5.66537 16.1227C6.23282 14.9133 7.72873 14.0996 9.38576 14.0996C9.40238 14.0996 9.41799 14.0996 9.43309 14.0996C9.29866 13.8625 9.23371 13.6168 9.23371 13.3585C9.23371 13.2301 9.25083 13.0992 9.28506 12.9657C7.54697 12.9265 6.24641 11.6536 6.24641 9.97542C6.24641 8.79068 7.19351 7.63614 8.54793 7.16989C8.95325 7.02992 9.36663 6.95842 9.77296 6.95842H13.4898C13.6162 6.95842 13.7285 7.04049 13.7678 7.16083C13.807 7.28067 13.7637 7.41258 13.6615 7.4866L12.8302 8.08829C12.7804 8.12353 12.7205 8.14267 12.6585 8.14267H12.361C12.7451 8.60337 12.9702 9.26044 12.9702 9.99808C12.9702 10.8122 12.5583 11.5821 11.8086 12.1687C11.2296 12.6198 11.2069 12.7442 11.2069 13.0015C11.214 13.143 11.6173 13.6047 12.0624 13.9194C13.0991 14.6525 13.4848 15.372 13.4848 16.5723C13.4843 17.8266 12.5322 18.9101 11.0589 19.3381ZM19.4528 12.9627C19.4528 13.1238 19.3214 13.2547 19.1608 13.2547H17.0486V15.368C17.0486 15.5291 16.9172 15.66 16.7576 15.66H16.1559C15.9938 15.66 15.8628 15.5291 15.8628 15.368V13.2547H13.7522C13.591 13.2547 13.4601 13.1248 13.4601 12.9627V12.362C13.4601 12.2009 13.591 12.069 13.7522 12.069H15.8628V9.9578C15.8628 9.79617 15.9938 9.66577 16.1559 9.66577H16.7576C16.9172 9.66577 17.0486 9.79617 17.0486 9.9578V12.069H19.1603C19.3209 12.069 19.4523 12.1999 19.4523 12.361V12.9627H19.4528Z" fill="white" fill-opacity="0.87"/>
</g>
<defs>
<clipPath id="clip0">
<rect width="25" height="25" fill="white" transform="translate(-6.10352e-05 0.751221)"/>
</clipPath>
</defs>
</svg>
