<svg width="10" height="13" viewBox="0 0 10 13" fill="none" xmlns="http://www.w3.org/2000/svg">
<path d="M4.99981 0.854858C2.56402 0.854858 0.582138 2.83674 0.582138 5.27278C0.582138 5.90819 0.712192 6.51486 0.968494 7.0761C2.07303 9.4931 4.19075 12.0449 4.81363 12.7694C4.8603 12.8235 4.92833 12.8547 4.99993 12.8547C5.07153 12.8547 5.13957 12.8235 5.18623 12.7694C5.80887 12.0451 7.92658 9.49334 9.03149 7.0761C9.28792 6.51486 9.41785 5.90819 9.41785 5.27278C9.4176 2.83674 7.43572 0.854858 4.99981 0.854858ZM4.99981 7.56746C3.73451 7.56746 2.70501 6.53795 2.70501 5.27265C2.70501 4.00723 3.73451 2.97773 4.99981 2.97773C6.26511 2.97773 7.29461 4.00723 7.29461 5.27265C7.29473 6.53795 6.26523 7.56746 4.99981 7.56746Z" fill="white"/>
</svg>
