<svg width="20" height="20" viewBox="0 0 20 20" fill="none" xmlns="http://www.w3.org/2000/svg">
<path d="M19.0538 18.1332C19.3321 18.4114 19.3321 18.8625 19.0538 19.1408C18.7756 19.419 18.3244 19.419 18.0462 19.1408L14.6262 15.7208C14.3479 15.4425 14.3479 14.9914 14.6262 14.7131C14.9044 14.4349 15.3556 14.4349 15.6338 14.7131L19.0538 18.1332ZM8.28999 15.9295C4.11886 15.9295 0.737488 12.5481 0.737488 8.37696C0.737488 4.20583 4.11886 0.824463 8.28999 0.824463C12.4611 0.824463 15.8425 4.20583 15.8425 8.37696C15.8425 12.5481 12.4611 15.9295 8.28999 15.9295ZM8.28999 14.5045C11.6741 14.5045 14.4175 11.7611 14.4175 8.37696C14.4175 4.99284 11.6741 2.24946 8.28999 2.24946C4.90586 2.24946 2.16249 4.99284 2.16249 8.37696C2.16249 11.7611 4.90586 14.5045 8.28999 14.5045ZM4.77499 7.80696C4.77499 8.0693 4.56232 8.28196 4.29999 8.28196C4.03765 8.28196 3.82499 8.0693 3.82499 7.80696C3.82499 5.65581 5.56884 3.91196 7.71999 3.91196C7.98232 3.91196 8.19499 4.12463 8.19499 4.38696C8.19499 4.6493 7.98232 4.86196 7.71999 4.86196C6.09351 4.86196 4.77499 6.18048 4.77499 7.80696Z" fill="#333333"/>
</svg>
