<svg width="26" height="26" viewBox="0 0 26 26" fill="none" xmlns="http://www.w3.org/2000/svg">
<g clip-path="url(#clip0)">
<path d="M13.3097 0.751221C6.41722 0.751221 0.809692 6.35875 0.809692 13.2512C0.809692 20.1432 6.41722 25.7512 13.3097 25.7512C20.2017 25.7512 25.8097 20.1432 25.8097 13.2512C25.8097 6.35875 20.2027 0.751221 13.3097 0.751221ZM18.886 10.3903C18.8915 10.5142 18.8946 10.639 18.8946 10.7639C18.8946 14.5659 16.0014 18.9484 10.7081 18.9484C9.08328 18.9484 7.57075 18.4736 6.29789 17.6569C6.52296 17.6836 6.75205 17.6972 6.98417 17.6972C8.33255 17.6972 9.57268 17.237 10.5575 16.4656C9.29878 16.4424 8.23588 15.6106 7.86983 14.4672C8.04505 14.5004 8.22581 14.519 8.41059 14.519C8.67292 14.519 8.92769 14.4848 9.16887 14.4188C7.85271 14.155 6.86131 12.9924 6.86131 11.5977C6.86131 11.5856 6.86131 11.573 6.86182 11.5615C7.24951 11.7765 7.6931 11.9064 8.16438 11.921C7.39301 11.4059 6.88498 10.5247 6.88498 9.5268C6.88498 8.99913 7.02646 8.50469 7.27419 8.07973C8.69256 9.82085 10.8133 10.9658 13.204 11.0867C13.1546 10.8757 13.1299 10.6567 13.1299 10.4306C13.1299 8.84203 14.4179 7.55357 16.0065 7.55357C16.8342 7.55357 17.5809 7.903 18.1066 8.46189C18.7626 8.33299 19.3769 8.09433 19.9343 7.76353C19.7178 8.4357 19.2631 8.99913 18.6675 9.35561C19.25 9.28612 19.8059 9.13205 20.32 8.90296C19.9363 9.47897 19.4484 9.98599 18.886 10.3903Z" fill="white" fill-opacity="0.87"/>
</g>
<defs>
<clipPath id="clip0">
<rect width="25" height="25" fill="white" transform="translate(0.809692 0.751221)"/>
</clipPath>
</defs>
</svg>
